<?xml version="1.0" encoding="UTF-8"?>
<svg xmlns="http://www.w3.org/2000/svg" viewBox="0 0 920 200" role="img" aria-label="Best Aircotechniek logo horizontaal">
  <defs>
    <linearGradient id="hRingBlue" x1="0%" y1="0%" x2="100%" y2="100%">
      <stop offset="0%" stop-color="#245f8f"/>
      <stop offset="50%" stop-color="#1b4e79"/>
      <stop offset="100%" stop-color="#153d5f"/>
    </linearGradient>
    <linearGradient id="hMountainBlue" x1="0%" y1="0%" x2="0%" y2="100%">
      <stop offset="0%" stop-color="#2d76ad"/>
      <stop offset="100%" stop-color="#1b4e79"/>
    </linearGradient>
    <linearGradient id="hSunGold" x1="0%" y1="0%" x2="0%" y2="100%">
      <stop offset="0%" stop-color="#f0d061"/>
      <stop offset="100%" stop-color="#d4af37"/>
    </linearGradient>
    <path id="hTopArc" d="M 92 256 A 164 164 0 0 1 420 256" fill="none"/>
    <path id="hBottomArc" d="M 420 256 A 164 164 0 0 1 92 256" fill="none"/>
  </defs>

  <g transform="translate(20 20) scale(0.3125)">
    <circle cx="256" cy="256" r="248" fill="url(#hRingBlue)"/>
    <circle cx="256" cy="256" r="248" fill="none" stroke="#ffffff" stroke-width="3" opacity="0.35"/>
    <circle cx="256" cy="256" r="188" fill="#ffffff"/>
    <circle cx="256" cy="256" r="188" fill="none" stroke="#ffffff" stroke-width="4"/>
    <text fill="#ffffff" font-family="'Arial Black', Arial, sans-serif" font-size="23" font-weight="700" letter-spacing="1.8">
      <textPath href="#hTopArc" startOffset="50%" text-anchor="middle">BEST AIRCOTECHNIEK</textPath>
    </text>
    <text fill="#ffffff" font-family="Arial, sans-serif" font-size="15.5" font-weight="700" letter-spacing="1.2">
      <textPath href="#hBottomArc" startOffset="50%" text-anchor="middle">ALTIJD HET BESTE KLIMAAT</textPath>
    </text>
    <rect x="78" y="252" width="28" height="3" rx="1.5" fill="#ffffff"/>
    <rect x="406" y="252" width="28" height="3" rx="1.5" fill="#ffffff"/>
    <g transform="translate(256 188)">
      <g fill="url(#hSunGold)">
        <polygon points="0,-78 10,-34 0,-48 -10,-34"/>
        <polygon points="0,-78 34,-10 18,-22 10,-34" transform="rotate(30)"/>
        <polygon points="0,-78 34,-10 18,-22 10,-34" transform="rotate(60)"/>
        <polygon points="0,-78 34,-10 18,-22 10,-34" transform="rotate(90)"/>
        <polygon points="0,-78 34,-10 18,-22 10,-34" transform="rotate(120)"/>
        <polygon points="0,-78 34,-10 18,-22 10,-34" transform="rotate(150)"/>
        <polygon points="0,-78 34,-10 18,-22 10,-34" transform="rotate(180)"/>
        <polygon points="0,-78 34,-10 18,-22 10,-34" transform="rotate(210)"/>
        <polygon points="0,-78 34,-10 18,-22 10,-34" transform="rotate(240)"/>
        <polygon points="0,-78 34,-10 18,-22 10,-34" transform="rotate(270)"/>
        <polygon points="0,-78 34,-10 18,-22 10,-34" transform="rotate(300)"/>
        <polygon points="0,-78 34,-10 18,-22 10,-34" transform="rotate(330)"/>
      </g>
      <circle cy="8" r="52" fill="url(#hSunGold)"/>
    </g>
    <path d="M118 332 L198 214 L256 252 L314 198 L394 332 Z" fill="url(#hMountainBlue)"/>
    <path d="M198 214 L228 248 L168 248 Z" fill="#ffffff"/>
    <path d="M314 198 L344 248 L284 248 Z" fill="#ffffff"/>
    <path d="M248 252 L276 292 L228 292 Z" fill="#ffffff"/>
    <g transform="translate(256 286)" fill="#ffffff" stroke="#ffffff" stroke-width="4" stroke-linecap="round">
      <line x1="0" y1="-34" x2="0" y2="34"/>
      <line x1="-29.4" y1="-17" x2="29.4" y2="17"/>
      <line x1="-29.4" y1="17" x2="29.4" y2="-17"/>
      <line x1="-12" y1="-34" x2="12" y2="-22"/>
      <line x1="12" y1="-34" x2="-12" y2="-22"/>
      <line x1="34" y1="-6" x2="22" y2="10"/>
      <line x1="34" y1="6" x2="22" y2="-10"/>
      <line x1="-34" y1="-6" x2="-22" y2="10"/>
      <line x1="-34" y1="6" x2="-22" y2="-10"/>
      <line x1="-12" y1="34" x2="12" y2="22"/>
      <line x1="12" y1="34" x2="-12" y2="22"/>
    </g>
  </g>

  <text x="200" y="88" fill="#1b4e79" font-family="'Arial Black', Arial, sans-serif" font-size="52" font-weight="800" letter-spacing="1.5">BEST AIRCOTECHNIEK</text>
  <text x="202" y="142" fill="#d4af37" font-family="Arial, sans-serif" font-size="34" font-weight="600">Altijd het beste klimaat</text>
</svg>
